<svg width="64" height="64" viewBox="0 0 64 64" fill="none" xmlns="http://www.w3.org/2000/svg">
<path d="M23.3 21.5L24 22.7L25.2 23.3L24 24L23.3 25.2L22.7 24L21.5 23.3L22.7 22.7L23.3 21.5Z" fill="#FFA500"/>
<path d="M43.3 31.5L44 32.7L45.2 33.3L44 34L43.3 35.2L42.7 34L41.5 33.3L42.7 32.7L43.3 31.5Z" fill="#FFA500"/>
<path d="M34.5 33.2C34.5 29.5 36.5 26.3 39.5 24.5C38 23.6 36.3 23.2 34.5 23.2C29 23.2 24.5 27.7 24.5 33.2C24.5 38.7 29 43.2 34.5 43.2C36.3 43.2 38 42.7 39.5 41.9C36.5 40.2 34.5 36.9 34.5 33.2Z" fill="#FFA500" stroke="#FFA500" stroke-width="2" stroke-linejoin="round"/>
</svg>
