<svg width="42" height="29" viewBox="0 0 42 29" fill="none" xmlns="http://www.w3.org/2000/svg">
<path d="M23.54 0L24.1 0.96L25.06 1.44L24.1 2L23.54 2.96L23.06 2L22.1 1.44L23.06 0.96L23.54 0Z" fill="#FFA500"/>
<path d="M39.54 8L40.1 8.96L41.06 9.44L40.1 10L39.54 10.96L39.06 10L38.1 9.44L39.06 8.96L39.54 8Z" fill="#FFA500"/>
<path d="M32.5 9.35999C32.5 6.39999 34.1 3.83999 36.5 2.39999C35.3 1.67999 33.94 1.35999 32.5 1.35999C28.1 1.35999 24.5 4.95999 24.5 9.35999C24.5 13.76 28.1 17.36 32.5 17.36C33.94 17.36 35.3 16.96 36.5 16.32C34.1 14.96 32.5 12.32 32.5 9.35999Z" fill="#FFA500" stroke="#FFA500" stroke-width="1.6" stroke-linejoin="round"/>
<path d="M32.6 19.2C32.6 14.6 28.9 11 24.4 11C23.4 11 22.5 11.2 21.6 11.5C21.3 8.09999 18.5 5.29999 15 5.29999C11.3 5.29999 8.3 8.29999 8.3 12C8.3 12.8 8.5 13.6 8.7 14.3C8.4 14.2 8 14.2 7.7 14.2C4 14.2 1 17.2 1 20.9C1 24.5 3.9 27.5 7.5 27.6H24.7C29.1 27.1 32.6 23.6 32.6 19.2Z" fill="#C6DEFF" stroke="white" stroke-width="1.2" stroke-linejoin="round"/>
</svg>
