<svg width="64" height="64" viewBox="0 0 64 64" fill="none" xmlns="http://www.w3.org/2000/svg">
<path d="M38.64 15.2L39.2 16.16L40.16 16.64L39.2 17.2L38.64 18.16L38.16 17.2L37.2 16.64L38.16 16.16L38.64 15.2Z" fill="#FFA500"/>
<path d="M54.64 23.2L55.2 24.16L56.16 24.64L55.2 25.2L54.64 26.16L54.16 25.2L53.2 24.64L54.16 24.16L54.64 23.2Z" fill="#FFA500"/>
<path d="M47.6 24.56C47.6 21.6 49.2 19.04 51.6 17.6C50.4 16.88 49.04 16.56 47.6 16.56C43.2 16.56 39.6 20.16 39.6 24.56C39.6 28.96 43.2 32.56 47.6 32.56C49.04 32.56 50.4 32.16 51.6 31.52C49.2 30.16 47.6 27.52 47.6 24.56Z" fill="#FFA500" stroke="#FFA500" stroke-width="1.6" stroke-linejoin="round"/>
<path d="M47.7 34.4C47.7 29.8 44 26.2 39.5 26.2C38.5 26.2 37.6 26.4 36.7 26.7C36.4 23.3 33.6 20.5 30.1 20.5C26.4 20.5 23.4 23.5 23.4 27.2C23.4 28 23.6 28.8 23.8 29.5C23.5 29.4 23.1 29.4 22.8 29.4C19.1 29.4 16.1 32.4 16.1 36.1C16.1 39.7 19 42.7 22.6 42.8H39.8C44.2 42.3 47.7 38.8 47.7 34.4Z" fill="#91C0F8" stroke="white" stroke-width="1.2" stroke-linejoin="round"/>
</svg>
