<svg width="64" height="64" viewBox="0 0 64 64" fill="none" xmlns="http://www.w3.org/2000/svg">
<path d="M47.7 34.4C47.7 29.8 44 26.2 39.5 26.2C38.5 26.2 37.6 26.4 36.7 26.7C36.4 23.3 33.6 20.5 30.1 20.5C26.4 20.5 23.4 23.5 23.4 27.2C23.4 28 23.6 28.8 23.8 29.5C23.5 29.4 23.1 29.4 22.8 29.4C19.1 29.4 16.1 32.4 16.1 36.1C16.1 39.7 19 42.7 22.6 42.8H39.8C44.2 42.3 47.7 38.8 47.7 34.4Z" fill="#57A0EE" stroke="white" stroke-width="1.2" stroke-linejoin="round"/>
<path d="M23 44.5V49.5" stroke="#57A0EE" stroke-width="1.2" stroke-linecap="round"/>
<path d="M24.7678 45.2322L21.2322 48.7678" stroke="#57A0EE" stroke-linecap="round"/>
<path d="M25.5 47H20.5" stroke="#57A0EE" stroke-linecap="round"/>
<path d="M24.7678 48.7678L21.2322 45.2322" stroke="#57A0EE" stroke-linecap="round"/>
<path d="M31 44.5V49.5" stroke="#57A0EE" stroke-width="1.2" stroke-linecap="round"/>
<path d="M32.7678 45.2322L29.2322 48.7678" stroke="#57A0EE" stroke-linecap="round"/>
<path d="M33.5 47H28.5" stroke="#57A0EE" stroke-linecap="round"/>
<path d="M32.7678 48.7678L29.2322 45.2322" stroke="#57A0EE" stroke-linecap="round"/>
<path d="M40 44.5V49.5" stroke="#57A0EE" stroke-width="1.2" stroke-linecap="round"/>
<path d="M41.7678 45.2322L38.2322 48.7678" stroke="#57A0EE" stroke-linecap="round"/>
<path d="M42.5 47H37.5" stroke="#57A0EE" stroke-linecap="round"/>
<path d="M41.7678 48.7678L38.2322 45.2322" stroke="#57A0EE" stroke-linecap="round"/>
</svg>
