<svg width="32" height="32" viewBox="0 0 32 32" fill="none" xmlns="http://www.w3.org/2000/svg">
<ellipse cx="16" cy="15.9674" rx="16" ry="15.9674" fill="#FBDA4C"/>
<path d="M16 32.0001C24.8222 32.0001 32 24.8369 32 16.0327C32 7.2285 24.8222 0.0653076 16 0.0653076C7.17781 0.0653076 0 7.2285 0 16.0327C0 24.8369 7.17781 32.0001 16 32.0001ZM16 1.66075C23.9413 1.66075 30.4013 8.10762 30.4013 16.0327C30.4013 23.9578 23.9413 30.4047 16 30.4047C8.05873 30.4047 1.59869 23.9578 1.59869 16.0327C1.59869 8.10762 8.05873 1.66075 16 1.66075Z" fill="#FFBF48"/>
<path d="M19.9608 17.8558L16.8287 20.9815V9.03852C16.8287 8.5957 16.4698 8.23754 16.0261 8.23754C15.5824 8.23754 15.2235 8.5957 15.2235 9.03852L15.2235 20.975L12.0913 17.8492C11.9347 17.693 11.7324 17.6148 11.5236 17.6148C11.3148 17.6148 11.1125 17.693 10.9559 17.8492C10.6427 18.1618 10.6427 18.6632 10.9559 18.9758L15.4518 23.4626C15.7651 23.7752 16.2675 23.7752 16.5807 23.4626L21.0766 18.9758C21.3899 18.6632 21.3899 18.1618 21.0766 17.8492C20.783 17.5432 20.274 17.5432 19.9608 17.8558Z" fill="white"/>
</svg>
