<svg width="32" height="32" viewBox="0 0 32 32" fill="none" xmlns="http://www.w3.org/2000/svg">
<ellipse cx="16" cy="15.9674" rx="16" ry="15.9674" fill="#FBDA4C"/>
<path d="M16 32.0001C24.8222 32.0001 32 24.8369 32 16.0327C32 7.2285 24.8222 0.0653076 16 0.0653076C7.17781 0.0653076 0 7.2285 0 16.0327C0 24.8369 7.17781 32.0001 16 32.0001ZM16 1.66075C23.9413 1.66075 30.4013 8.10762 30.4013 16.0327C30.4013 23.9578 23.9413 30.4047 16 30.4047C8.05873 30.4047 1.59869 23.9578 1.59869 16.0327C1.59869 8.10762 8.05873 1.66075 16 1.66075Z" fill="#FFBF48"/>
<path d="M12.0718 14.0788L15.2039 10.9531V22.8961C15.2039 23.3389 15.5628 23.697 16.0065 23.697C16.4502 23.697 16.8091 23.3389 16.8091 22.8961V10.9596L19.9413 14.0853C20.0979 14.2416 20.3001 14.3198 20.509 14.3198C20.7178 14.3198 20.92 14.2416 21.0767 14.0853C21.3899 13.7727 21.3899 13.2713 21.0767 12.9587L16.5807 8.47198C16.2675 8.1594 15.7651 8.1594 15.4519 8.47198L10.9559 12.9587C10.6427 13.2713 10.6427 13.7727 10.9559 14.0853C11.2496 14.3914 11.7585 14.3914 12.0718 14.0788Z" fill="white"/>
</svg>
