<svg width="212" height="188" viewBox="0 0 212 188" fill="none" xmlns="http://www.w3.org/2000/svg">
<path d="M150.658 56.4241C150.658 38.0823 135.905 23.7278 117.962 23.7278C113.975 23.7278 110.386 24.5253 106.797 25.7215C105.601 12.1646 94.4367 1 80.481 1C65.7278 1 53.7658 12.962 53.7658 27.7152C53.7658 30.9051 54.5633 34.0949 55.3607 36.8861C54.1645 36.4873 52.5696 36.4873 51.3734 36.4873C36.6202 36.4873 24.6582 48.4494 24.6582 63.2025C24.6582 77.5569 36.2215 89.519 50.5759 89.9177H119.158C136.702 87.924 150.658 73.9684 150.658 56.4241Z" fill="#91C0F8" stroke="white" stroke-width="0.72" stroke-linejoin="round"/>
<path d="M211 130.588C211 100.019 186.411 76.0948 156.506 76.0948C149.861 76.0948 143.88 77.4239 137.899 79.4176C135.905 56.8226 117.297 38.215 94.038 38.215C69.4494 38.215 49.5126 58.1517 49.5126 82.7403C49.5126 88.0568 50.8418 93.3733 52.1709 98.0252C50.1772 97.3606 47.519 97.3606 45.5253 97.3606C20.9367 97.3606 1 117.297 1 141.886C1 165.81 20.2722 185.747 44.1962 186.411H158.5C187.74 183.088 211 159.829 211 130.588Z" fill="#57A0EE" stroke="white" stroke-width="1.2" stroke-linejoin="round"/>
</svg>
