<svg width="32" height="32" viewBox="0 0 32 32" fill="none" xmlns="http://www.w3.org/2000/svg">
<path d="M24.0739 9.4705C23.4247 9.4705 22.7971 9.55815 22.1933 9.707C20.4722 7.74405 17.9669 6.5 15.1686 6.5C11.0787 6.5 7.609 9.1474 6.3188 12.8362C6.30005 12.836 6.282 12.8334 6.26325 12.8334C2.80415 12.8334 0 15.6689 0 19.1667C0 22.6644 2.80415 25.5 6.26325 25.5C7.76765 25.5 22.509 25.5 24.0739 25.5C28.4514 25.5 32 21.9116 32 17.4853C32 13.0588 28.4514 9.4705 24.0739 9.4705ZM24.0739 24.4503H6.26325C3.3885 24.4503 1.0497 22.0801 1.0497 19.1667C1.0497 16.2624 3.37395 13.8978 6.2364 13.8831C6.26085 13.8847 6.28535 13.8856 6.3102 13.8858L7.06155 13.892L7.30965 13.1827C8.4881 9.81345 11.6463 7.5497 15.1686 7.5497C17.5436 7.5497 19.8163 8.58825 21.404 10.399L21.8248 10.879L22.4446 10.7262C22.9989 10.5895 23.5471 10.5202 24.0739 10.5202C27.8656 10.5202 30.9503 13.6447 30.9503 17.4853C30.9503 21.3258 27.8656 24.4503 24.0739 24.4503Z" fill="black"/>
</svg>
