<svg width="18" height="18" viewBox="0 0 18 18" fill="none" xmlns="http://www.w3.org/2000/svg">
<path d="M7.79999 1.79999C4.49339 1.79999 1.79999 4.49339 1.79999 7.79999C1.79999 11.1066 4.49339 13.8 7.79999 13.8C9.23789 13.8 10.5584 13.2894 11.5933 12.4418L15.1758 16.0242C15.2311 16.0818 15.2973 16.1278 15.3706 16.1594C15.4438 16.1911 15.5227 16.2078 15.6025 16.2087C15.6823 16.2095 15.7615 16.1943 15.8354 16.1642C15.9093 16.134 15.9765 16.0894 16.0329 16.0329C16.0894 15.9765 16.134 15.9093 16.1642 15.8354C16.1943 15.7615 16.2095 15.6823 16.2087 15.6025C16.2078 15.5227 16.1911 15.4438 16.1594 15.3706C16.1278 15.2973 16.0818 15.2311 16.0242 15.1758L12.4418 11.5933C13.2894 10.5584 13.8 9.23789 13.8 7.79999C13.8 4.49339 11.1066 1.79999 7.79999 1.79999ZM7.79999 2.99999C10.4581 2.99999 12.6 5.14191 12.6 7.79999C12.6 10.4581 10.4581 12.6 7.79999 12.6C5.14191 12.6 2.99999 10.4581 2.99999 7.79999C2.99999 5.14191 5.14191 2.99999 7.79999 2.99999Z" fill="black"/>
</svg>
