<svg width="10" height="29" viewBox="0 0 10 29" fill="none" xmlns="http://www.w3.org/2000/svg">
<path d="M7.36977 3.06783C7.36977 1.75906 6.30883 0.698059 4.99999 0.698059C3.69122 0.698059 2.63022 1.759 2.63022 3.06783V10.3996H7.36971V3.06783H7.36977Z" fill="white"/>
<path d="M7.36978 19.983V10.3995H2.63028V19.983C1.46632 20.7529 0.69809 22.0729 0.69809 23.573C0.69809 25.9489 2.62409 27.875 5.00006 27.875C7.37603 27.875 9.30203 25.949 9.30203 23.573C9.30197 22.073 8.53374 20.753 7.36978 19.983Z" fill="#57A0EE"/>
<path d="M8.0678 19.6253C8.0678 19.0507 8.0678 3.6425 8.0678 3.06786C8.0678 1.37625 6.69156 0 5 0C3.30844 0 1.93219 1.37625 1.93219 3.06781C1.93219 3.64289 1.93219 19.0508 1.93219 19.6253C0.715721 20.5702 0 22.0193 0 23.573C0 26.33 2.24304 28.573 5 28.573C7.75696 28.573 10 26.33 10 23.573C10 22.0193 9.28428 20.5703 8.0678 19.6253ZM3.32826 3.06781C3.32826 2.14605 4.07824 1.39606 5 1.39606C5.92176 1.39606 6.67174 2.14605 6.67174 3.06781V4.85072H5.23221C4.84659 4.85072 4.53418 5.16318 4.53418 5.54875C4.53418 5.93432 4.84664 6.24678 5.23221 6.24678H6.67174V6.97087H5.23221C4.84659 6.97087 4.53418 7.28333 4.53418 7.6689C4.53418 8.05447 4.84664 8.36693 5.23221 8.36693H6.67174V9.70138H3.32826V3.06781ZM5 27.177C3.01272 27.177 1.39606 25.5603 1.39606 23.573C1.39606 22.3603 2.00139 21.2358 3.01524 20.5652C3.21067 20.4359 3.32814 20.2174 3.32814 19.983V11.0975H6.67163V19.983C6.67163 20.2173 6.78916 20.4359 6.98454 20.5652C7.99844 21.2358 8.60372 22.3603 8.60372 23.573C8.60394 25.5603 6.98728 27.177 5 27.177Z" fill="#58595B"/>
<path d="M7.0649 22.875C6.67928 22.875 6.36687 23.1875 6.36687 23.573C6.36687 24.3267 5.75373 24.9399 5 24.9399C4.61438 24.9399 4.30197 25.2524 4.30197 25.6379C4.30197 26.0235 4.61443 26.336 5 26.336C6.52347 26.336 7.76293 25.0966 7.76293 23.573C7.76293 23.1875 7.45042 22.875 7.0649 22.875Z" fill="#58595B"/>
</svg>
