<svg width="158" height="90" viewBox="0 0 158 90" fill="none" xmlns="http://www.w3.org/2000/svg">
<g filter="url(#filter0_d_824_3)">
<path d="M148 82C148 63.4348 140.625 45.6301 127.497 32.5025C114.37 19.375 96.5652 12 78 12C59.4349 12 41.6301 19.375 28.5025 32.5025C15.375 45.6301 8 63.4348 8 82" stroke="#F0F0F0" stroke-width="8"/>
<path d="M51.2451 1.83203H51.4209V2.87207H51.3379C50.944 2.87207 50.5973 2.93229 50.2979 3.05273C50.0016 3.17318 49.7542 3.34245 49.5557 3.56055C49.3604 3.77539 49.2122 4.03092 49.1113 4.32715C49.0104 4.62012 48.96 4.94076 48.96 5.28906V6.44141C48.96 6.71159 48.9876 6.94922 49.043 7.1543C49.1016 7.35612 49.1813 7.52702 49.2822 7.66699C49.3864 7.80371 49.5068 7.90625 49.6436 7.97461C49.7835 8.04297 49.9365 8.07715 50.1025 8.07715C50.2686 8.07715 50.4183 8.04297 50.5518 7.97461C50.6852 7.90625 50.7992 7.81022 50.8936 7.68652C50.9912 7.55957 51.0645 7.41146 51.1133 7.24219C51.1654 7.07292 51.1914 6.88737 51.1914 6.68555C51.1914 6.48698 51.167 6.30306 51.1182 6.13379C51.0693 5.96452 50.9977 5.81641 50.9033 5.68945C50.8089 5.55924 50.6917 5.45996 50.5518 5.3916C50.415 5.31999 50.2588 5.28418 50.083 5.28418C49.8551 5.28418 49.6517 5.33789 49.4727 5.44531C49.2936 5.54948 49.152 5.6862 49.0479 5.85547C48.9437 6.02474 48.8867 6.20378 48.877 6.39258L48.4424 6.17773C48.4587 5.90104 48.5173 5.64714 48.6182 5.41602C48.7223 5.1849 48.8607 4.98307 49.0332 4.81055C49.209 4.63802 49.4157 4.50456 49.6533 4.41016C49.8942 4.31576 50.1611 4.26855 50.4541 4.26855C50.7926 4.26855 51.0889 4.33366 51.3428 4.46387C51.5967 4.59082 51.8066 4.76497 51.9727 4.98633C52.1419 5.20768 52.2689 5.46322 52.3535 5.75293C52.4382 6.03939 52.4805 6.34212 52.4805 6.66113C52.4805 7.00293 52.4251 7.32194 52.3145 7.61816C52.207 7.91439 52.0508 8.17318 51.8457 8.39453C51.6406 8.61589 51.3932 8.78841 51.1035 8.91211C50.8138 9.03581 50.4883 9.09766 50.127 9.09766C49.7461 9.09766 49.4043 9.02604 49.1016 8.88281C48.8021 8.73958 48.5449 8.54102 48.3301 8.28711C48.1152 8.0332 47.9508 7.73698 47.8369 7.39844C47.723 7.0599 47.666 6.69368 47.666 6.2998V5.78223C47.666 5.22559 47.7425 4.70801 47.8955 4.22949C48.0485 3.75098 48.2747 3.33268 48.5742 2.97461C48.877 2.61328 49.2513 2.33333 49.6973 2.13477C50.1432 1.93294 50.6592 1.83203 51.2451 1.83203Z" fill="#B9B9B9"/>
<path d="M9.06738 35.874H9.79492C10.0521 35.874 10.2637 35.8301 10.4297 35.7422C10.599 35.651 10.7243 35.5273 10.8057 35.3711C10.8903 35.2116 10.9326 35.0277 10.9326 34.8193C10.9326 34.6143 10.8952 34.4368 10.8203 34.2871C10.7454 34.1341 10.6315 34.0169 10.4785 33.9355C10.3288 33.8509 10.1367 33.8086 9.90234 33.8086C9.71354 33.8086 9.53939 33.846 9.37988 33.9209C9.22363 33.9958 9.09831 34.1032 9.00391 34.2432C8.91276 34.3799 8.86719 34.5443 8.86719 34.7363H7.57324C7.57324 34.3522 7.67415 34.0153 7.87598 33.7256C8.08105 33.4326 8.35775 33.2031 8.70605 33.0371C9.05436 32.8711 9.44336 32.7881 9.87305 32.7881C10.3418 32.7881 10.752 32.8662 11.1035 33.0225C11.4583 33.1755 11.7334 33.4017 11.9287 33.7012C12.1273 34.0007 12.2266 34.3717 12.2266 34.8145C12.2266 35.026 12.1761 35.2376 12.0752 35.4492C11.9775 35.6576 11.8327 35.8464 11.6406 36.0156C11.4518 36.1816 11.2191 36.3167 10.9424 36.4209C10.6689 36.5218 10.3548 36.5723 10 36.5723H9.06738V35.874ZM9.06738 36.8701V36.1816H10C10.4004 36.1816 10.7471 36.2288 11.04 36.3232C11.3363 36.4144 11.5804 36.5446 11.7725 36.7139C11.9645 36.8799 12.1061 37.0736 12.1973 37.2949C12.2917 37.5163 12.3389 37.7539 12.3389 38.0078C12.3389 38.3398 12.277 38.6361 12.1533 38.8965C12.0296 39.1536 11.8555 39.3717 11.6309 39.5508C11.4095 39.7298 11.1491 39.8665 10.8496 39.9609C10.5501 40.0521 10.2262 40.0977 9.87793 40.0977C9.5752 40.0977 9.2806 40.057 8.99414 39.9756C8.71094 39.891 8.4554 39.7656 8.22754 39.5996C7.99967 39.4303 7.81901 39.2188 7.68555 38.9648C7.55208 38.7077 7.48535 38.4098 7.48535 38.0713H8.7793C8.7793 38.2666 8.8265 38.4408 8.9209 38.5938C9.01855 38.7467 9.15202 38.8672 9.32129 38.9551C9.49382 39.0397 9.6875 39.082 9.90234 39.082C10.14 39.082 10.3434 39.0397 10.5127 38.9551C10.6852 38.8672 10.8171 38.7435 10.9082 38.584C10.9993 38.4212 11.0449 38.2275 11.0449 38.0029C11.0449 37.736 10.9945 37.5195 10.8936 37.3535C10.7926 37.1875 10.6478 37.0654 10.459 36.9873C10.2734 36.9092 10.0521 36.8701 9.79492 36.8701H9.06738Z" fill="#B9B9B9"/>
<path d="M104.628 7.99902H104.721C105.141 7.99902 105.495 7.94531 105.785 7.83789C106.078 7.73047 106.314 7.5791 106.493 7.38379C106.675 7.18522 106.807 6.94922 106.889 6.67578C106.973 6.39909 107.016 6.0931 107.016 5.75781V4.46875C107.016 4.19531 106.988 3.95605 106.933 3.75098C106.877 3.54264 106.799 3.36849 106.698 3.22852C106.601 3.08854 106.485 2.98438 106.352 2.91602C106.218 2.8444 106.075 2.80859 105.922 2.80859C105.753 2.80859 105.603 2.84766 105.473 2.92578C105.342 3.00391 105.232 3.11133 105.141 3.24805C105.053 3.38151 104.984 3.53613 104.936 3.71191C104.89 3.8877 104.867 4.07324 104.867 4.26855C104.867 4.45736 104.888 4.63802 104.931 4.81055C104.976 4.98307 105.043 5.13607 105.131 5.26953C105.222 5.40299 105.336 5.50879 105.473 5.58691C105.609 5.66178 105.769 5.69922 105.951 5.69922C106.124 5.69922 106.28 5.66667 106.42 5.60156C106.563 5.5332 106.687 5.44368 106.791 5.33301C106.895 5.21908 106.975 5.09375 107.03 4.95703C107.089 4.81706 107.121 4.67546 107.128 4.53223L107.582 4.72754C107.582 4.96517 107.532 5.19954 107.431 5.43066C107.333 5.66178 107.195 5.87174 107.016 6.06055C106.84 6.24609 106.635 6.39583 106.4 6.50977C106.166 6.62044 105.914 6.67578 105.644 6.67578C105.308 6.67578 105.012 6.61393 104.755 6.49023C104.498 6.36654 104.281 6.19564 104.105 5.97754C103.933 5.75618 103.803 5.50228 103.715 5.21582C103.627 4.92611 103.583 4.61686 103.583 4.28809C103.583 3.94629 103.637 3.62565 103.744 3.32617C103.852 3.02344 104.006 2.75814 104.208 2.53027C104.413 2.29915 104.66 2.11849 104.95 1.98828C105.24 1.85482 105.565 1.78809 105.927 1.78809C106.301 1.78809 106.635 1.86133 106.928 2.00781C107.221 2.1543 107.47 2.35775 107.675 2.61816C107.88 2.87533 108.036 3.17969 108.144 3.53125C108.254 3.88281 108.31 4.26693 108.31 4.68359V5.1377C108.31 5.57715 108.266 5.99382 108.178 6.3877C108.09 6.78158 107.955 7.14128 107.772 7.4668C107.59 7.79232 107.357 8.07389 107.074 8.31152C106.794 8.54915 106.459 8.73307 106.068 8.86328C105.681 8.99023 105.238 9.05371 104.74 9.05371H104.628V7.99902Z" fill="#B9B9B9"/>
<path d="M146.12 32.8711V40H144.826V34.3799L143.112 34.9463V33.9014L145.974 32.8711H146.12ZM153.327 38.9844V40H148.513V39.1309L150.822 36.6357C151.063 36.3623 151.254 36.1247 151.394 35.9229C151.534 35.721 151.633 35.5387 151.691 35.376C151.753 35.21 151.784 35.0521 151.784 34.9023C151.784 34.6842 151.745 34.4938 151.667 34.3311C151.589 34.165 151.475 34.0365 151.325 33.9453C151.179 33.8542 150.998 33.8086 150.783 33.8086C150.546 33.8086 150.342 33.8639 150.173 33.9746C150.007 34.082 149.88 34.2318 149.792 34.4238C149.707 34.6159 149.665 34.8356 149.665 35.083H148.371C148.371 34.6631 148.469 34.2806 148.664 33.9355C148.859 33.5872 149.139 33.3089 149.504 33.1006C149.868 32.8923 150.301 32.7881 150.803 32.7881C151.291 32.7881 151.704 32.8695 152.043 33.0322C152.382 33.1917 152.639 33.4196 152.814 33.7158C152.99 34.012 153.078 34.3652 153.078 34.7754C153.078 35.0033 153.041 35.2279 152.966 35.4492C152.891 35.6706 152.785 35.8903 152.648 36.1084C152.515 36.3232 152.355 36.5413 152.17 36.7627C151.984 36.984 151.778 37.2103 151.55 37.4414L150.163 38.9844H153.327Z" fill="#B9B9B9"/>
</g>
<defs>
<filter id="filter0_d_824_3" x="0" y="1.78809" width="157.327" height="88.2119" filterUnits="userSpaceOnUse" color-interpolation-filters="sRGB">
<feFlood flood-opacity="0" result="BackgroundImageFix"/>
<feColorMatrix in="SourceAlpha" type="matrix" values="0 0 0 0 0 0 0 0 0 0 0 0 0 0 0 0 0 0 127 0" result="hardAlpha"/>
<feOffset dy="4"/>
<feGaussianBlur stdDeviation="2"/>
<feComposite in2="hardAlpha" operator="out"/>
<feColorMatrix type="matrix" values="0 0 0 0 0 0 0 0 0 0 0 0 0 0 0 0 0 0 0.25 0"/>
<feBlend mode="normal" in2="BackgroundImageFix" result="effect1_dropShadow_824_3"/>
<feBlend mode="normal" in="SourceGraphic" in2="effect1_dropShadow_824_3" result="shape"/>
</filter>
</defs>
</svg>
